<svg xmlns="http://www.w3.org/2000/svg" viewBox="0 0 64 64" role="img" aria-label="Rafi Athallah engineering favicon">
  <rect width="64" height="64" rx="14" fill="#0f1f33"/>
  <rect x="17" y="17" width="30" height="30" rx="6" fill="#152f4a" stroke="#38bdf8" stroke-width="3"/>
  <path d="M11 22h6M11 32h6M11 42h6M47 22h6M47 32h6M47 42h6M22 11v6M32 11v6M42 11v6M22 47v6M32 47v6M42 47v6" stroke="#7dd3fc" stroke-width="3" stroke-linecap="round"/>
  <path d="M24 42V22h10c5 0 8 3 8 7 0 3-2 6-5 7l6 6h-7l-5-6h-2v6h-5Zm5-11h5c2 0 3-1 3-2.5S36 26 34 26h-5v5Z" fill="#f8fafc"/>
  <path d="M43 14l-5 9h6l-7 12 2-9h-5l5-12h4Z" fill="#22c55e"/>
</svg>
